<svg id="SvgjsSvg1001" width="288" height="288" xmlns="http://www.w3.org/2000/svg" version="1.1" xmlns:xlink="http://www.w3.org/1999/xlink" xmlns:svgjs="http://svgjs.com/svgjs"><defs id="SvgjsDefs1002"></defs><g id="SvgjsG1008" transform="matrix(0.9167,0,0,0.9167,11.995201271057141,11.995383032226556)"><svg xmlns="http://www.w3.org/2000/svg" xmlns:xlink="http://www.w3.org/1999/xlink" width="288" height="288" viewBox="0 0 16 16"><defs><linearGradient id="a"><stop offset="0" stop-color="#ffa425" class="stopColorfc6a28 svgShape"></stop><stop offset="1" stop-color="#ffad3a" class="stopColorf94045 svgShape"></stop></linearGradient><linearGradient id="b" x1="-688.5" x2="-677.687" y1="-97.512" y2="-97.512" gradientTransform="translate(691.5 1141.874)" gradientUnits="userSpaceOnUse" xlink:href="#a"></linearGradient></defs><path fill="url(#b)" d="m 7.99995,1037.3622 c -2.76143,0 -5,2.3566 -5,5.2637 0,2.2121 4.64453,8.5898 4.64453,8.5898 0.0928,0.1165 0.2292,0.1465 0.35547,0.1465 0.13066,0 0.2461,-0.039 0.35352,-0.1465 0,0 4.64658,-6.436 4.64658,-8.5898 0,-2.9071 -2.23858,-5.2637 -5,-5.2637 z m 0,2.9239 c 0.92045,0 1.66599,0.7868 1.66602,1.7558 2e-5,0.969 -0.74553,1.7539 -1.66602,1.7539 -0.92049,0 -1.66604,-0.7849 -1.66602,-1.7539 3e-5,-0.969 0.74557,-1.7558 1.66602,-1.7558 z" transform="translate(0 -1036.362)"></path></svg></g></svg>